<?xml version="1.0" standalone="no"?>
<!DOCTYPE svg PUBLIC "-//W3C//DTD SVG 20010904//EN"
 "http://www.w3.org/TR/2001/REC-SVG-20010904/DTD/svg10.dtd">
<svg version="1.0" xmlns="http://www.w3.org/2000/svg"
 width="1563.000000pt" height="1563.000000pt" viewBox="0 0 1563.000000 1563.000000"
 preserveAspectRatio="xMidYMid meet">
<metadata>
Created by potrace 1.16, written by Peter Selinger 2001-2019
</metadata>
<g transform="translate(0.000000,1563.000000) scale(0.100000,-0.100000)"
fill="#000000" stroke="none">
<path d="M5350 11424 c-254 -55 -390 -259 -390 -586 0 -101 -7 -108 -109 -108
-95 0 -148 -24 -194 -88 -42 -58 -50 -157 -18 -219 37 -73 115 -123 191 -123
120 0 200 101 200 252 0 43 4 60 15 64 22 9 74 -15 90 -40 46 -73 45 -444 -2
-543 -9 -20 -62 -86 -118 -147 -55 -61 -156 -174 -225 -251 -384 -434 -672
-732 -741 -769 -31 -16 -38 -17 -61 -5 -50 26 -507 425 -695 607 -69 66 -83
85 -83 111 0 27 32 66 233 283 127 139 300 329 382 423 279 316 346 378 480
441 86 41 163 61 280 74 50 6 117 16 150 23 54 11 60 14 60 37 0 21 -5 25 -36
28 -51 4 -486 -76 -528 -98 -74 -38 -504 -489 -941 -985 -143 -163 -166 -199
-156 -239 11 -46 245 -268 617 -588 119 -102 226 -191 237 -197 47 -25 78 -14
148 52 87 81 340 348 580 612 513 566 500 547 516 709 12 115 6 308 -12 378
-16 61 -65 118 -129 148 -63 29 -66 37 -58 189 10 186 55 310 144 392 87 80
225 119 354 98 60 -9 88 -21 284 -123 55 -28 67 -31 157 -31 77 0 99 -3 105
-15 13 -26 16 -2316 3 -2385 -6 -33 -22 -79 -35 -102 l-24 -43 827 0 827 0 33
153 c18 83 32 157 32 163 0 6 -19 -8 -43 -30 -160 -154 -507 -221 -1096 -214
l-265 3 -10 30 c-6 19 -11 279 -13 699 l-4 668 193 -4 c157 -4 204 -9 255 -25
82 -27 142 -63 186 -112 l37 -41 0 210 0 210 -36 -40 c-86 -95 -247 -140 -497
-140 l-138 0 3 493 c2 356 7 500 15 520 l13 27 244 0 c378 0 620 -21 811 -70
112 -29 253 -99 308 -154 l45 -45 -19 82 c-10 45 -26 121 -35 170 l-18 87
-828 0 c-700 0 -827 -2 -822 -14 4 -10 -6 -15 -33 -19 -63 -8 -139 11 -211 54
-114 68 -184 98 -252 108 -81 13 -99 13 -180 -5z m-400 -780 c34 -33 4 -198
-45 -244 -50 -47 -152 -31 -198 31 -27 37 -28 120 -1 156 30 40 68 65 111 73
50 9 114 1 133 -16z"/>
<path d="M7963 11251 c25 -27 59 -76 77 -110 28 -57 140 -336 369 -921 50
-129 139 -354 196 -500 57 -146 172 -438 255 -650 84 -212 154 -387 156 -389
9 -9 -3 -38 194 469 27 69 75 193 108 275 32 83 112 285 176 450 531 1356 510
1307 587 1384 l41 41 -90 0 -90 0 9 -34 c15 -56 -11 -150 -115 -416 -185 -469
-305 -776 -362 -920 -31 -80 -110 -282 -176 -450 -65 -168 -134 -342 -151
-387 -18 -46 -34 -83 -37 -83 -5 1 -41 90 -445 1125 -62 160 -174 445 -248
635 -140 358 -163 434 -147 492 6 18 10 34 10 35 0 2 -82 3 -181 3 l-182 0 46
-49z"/>
<path d="M6145 8334 c8 -9 23 -30 33 -47 16 -30 17 -117 20 -1219 l2 -1187
-78 -78 c-84 -85 -125 -145 -143 -216 -11 -38 -10 -51 4 -88 20 -49 76 -96
142 -118 145 -48 409 -177 430 -210 3 -6 10 -9 14 -7 4 3 7 -3 8 -12 1 -11
-14 -24 -38 -36 -54 -26 -63 -39 -47 -65 11 -18 10 -23 -10 -37 -13 -8 -34
-27 -47 -40 -14 -14 -25 -23 -25 -20 0 3 -12 -7 -27 -21 -16 -14 -27 -29 -26
-34 2 -5 -3 -8 -10 -6 -6 1 -11 -4 -9 -11 1 -8 -1 -11 -6 -8 -12 7 -143 -124
-136 -136 3 -5 0 -7 -8 -6 -7 2 -12 -3 -10 -10 1 -8 -2 -11 -7 -8 -11 7 -77
-83 -98 -132 -61 -145 131 -118 327 47 92 77 129 122 191 236 33 62 62 177 54
215 -5 24 -1 32 27 53 28 22 365 143 373 135 2 -2 -18 -113 -45 -248 -26 -135
-51 -265 -55 -290 -3 -25 -13 -77 -21 -117 -16 -81 -18 -153 -5 -153 16 0 33
29 27 48 -6 18 21 192 59 382 8 41 13 81 10 88 -3 7 -1 11 3 8 5 -3 19 54 32
127 28 161 32 173 64 181 14 3 38 11 53 17 15 7 35 13 43 14 8 1 76 21 150 43
154 47 168 50 170 39 3 -10 -24 -161 -61 -347 -40 -206 -45 -252 -27 -245 8 3
15 11 15 18 0 7 12 68 26 137 14 69 36 177 47 240 12 63 26 140 32 171 l11 56
71 18 c39 10 78 22 86 26 8 4 35 13 60 20 52 14 65 23 56 37 -4 6 -23 5 -53
-5 -196 -62 -239 -70 -215 -40 8 10 42 183 42 211 0 3 38 6 85 6 80 0 85 1 89
23 3 12 19 84 36 160 16 76 30 141 30 145 0 3 -17 -11 -37 -31 -43 -44 -122
-96 -153 -102 -16 -3 -19 -1 -12 8 8 10 23 72 47 195 2 13 7 32 10 42 8 25
-12 35 -23 13 -6 -10 -22 -76 -36 -148 -15 -71 -28 -130 -29 -132 -10 -9 -199
-56 -272 -68 -159 -24 -167 -24 -161 -1 3 12 12 62 21 112 16 85 16 93 0 123
-14 28 -20 32 -42 26 -59 -14 -140 -103 -208 -227 l-37 -68 -238 0 -238 0 -11
44 c-6 25 -11 74 -11 109 l0 63 38 18 c152 74 248 101 315 90 37 -6 42 -12 50
-71 4 -32 14 -38 25 -16 26 52 -36 123 -108 123 -74 0 -287 -78 -312 -115 -4
-5 -8 252 -8 573 l0 582 155 0 c243 0 382 -39 466 -131 20 -21 38 -39 40 -39
2 0 4 90 4 200 0 110 -2 200 -4 200 -2 0 -20 -17 -41 -39 -20 -21 -61 -50 -91
-64 -95 -46 -162 -58 -352 -64 l-178 -6 3 505 c2 410 6 508 17 521 26 32 673
19 896 -19 220 -37 379 -99 466 -183 l50 -48 -6 31 c-6 28 -48 227 -60 284
l-5 22 -831 0 c-760 0 -829 -1 -814 -16z m1049 -2311 c5 -17 -26 -218 -35
-227 -2 -3 -48 -8 -103 -12 l-98 -7 17 34 c51 99 164 229 199 229 8 0 17 -8
20 -17z m-1033 -269 c-12 -19 -21 -37 -21 -40 0 -2 172 -4 381 -4 l382 0 -7
-32 c-9 -47 12 -95 52 -114 30 -14 36 -14 49 -2 12 13 9 16 -26 27 -45 13 -56
34 -46 87 l6 34 106 0 105 0 -7 -27 c-4 -16 -20 -93 -36 -172 -36 -179 -48
-223 -58 -217 -4 3 -54 -10 -111 -30 -56 -19 -107 -33 -113 -31 -5 1 20 24 56
51 37 26 67 54 67 62 0 13 -6 12 -32 -5 -18 -11 -32 -26 -30 -32 1 -6 -2 -8
-8 -4 -6 3 -48 -23 -93 -58 -46 -36 -102 -71 -125 -78 -40 -12 -44 -11 -70 13
-61 56 -188 124 -362 193 -52 21 -116 48 -142 61 -117 59 -101 171 46 328 25
28 47 55 47 60 1 6 4 1 6 -12 3 -13 -5 -39 -16 -58z m1429 -61 c-1 -10 -11
-67 -24 -127 l-23 -110 -69 -22 c-260 -82 -367 -113 -373 -110 -7 5 22 167 55
314 l16 72 209 0 c193 0 209 -1 209 -17z m-983 -670 c-3 -35 -18 -86 -38 -128
-18 -38 -33 -76 -32 -82 0 -7 -3 -10 -8 -8 -4 3 -13 -4 -19 -15 -25 -47 -130
-146 -211 -200 -91 -61 -151 -82 -188 -68 -20 7 -22 13 -17 39 4 22 2 28 -7
23 -6 -4 -9 -4 -5 0 3 4 9 7 13 6 3 0 28 27 55 62 60 78 133 154 230 240 83
74 222 188 229 188 2 0 1 -26 -2 -57z"/>
<path d="M8049 8323 c52 -71 52 -59 49 -1319 l-3 -1169 -47 -85 c-118 -216
-207 -629 -178 -830 12 -85 47 -200 61 -200 5 0 9 -6 9 -14 0 -23 39 -65 86
-92 99 -58 216 -23 339 100 91 91 153 187 218 336 105 237 152 547 113 739
-20 95 -59 190 -101 239 -30 36 -93 72 -124 72 -30 0 -71 -21 -64 -33 3 -6 1
-7 -6 -3 -6 4 -24 -2 -40 -14 -16 -11 -32 -17 -34 -13 -3 5 -5 162 -6 351 l-1
342 338 0 337 -1 175 -286 c96 -157 177 -289 178 -294 2 -5 -1 -9 -7 -9 -7 0
-15 10 -20 22 -8 22 -8 22 -24 -8 -9 -18 -32 -38 -56 -49 -22 -10 -38 -22 -34
-28 3 -6 1 -7 -5 -3 -6 4 -26 -1 -44 -10 -54 -28 -168 -116 -162 -125 3 -5 0
-8 -8 -7 -7 2 -12 -3 -10 -10 1 -8 -2 -11 -7 -7 -15 9 -90 -97 -111 -159 -24
-67 -25 -113 -4 -166 17 -42 41 -56 30 -17 -3 12 -6 30 -6 40 0 10 -4 16 -8
13 -16 -10 8 117 31 163 28 58 124 156 202 207 33 21 62 42 63 47 2 4 10 7 18
7 7 0 29 9 48 20 37 20 48 16 42 -16 -7 -33 -106 -436 -126 -514 -70 -263
-183 -778 -174 -792 4 -6 3 -8 -3 -5 -11 7 -48 -217 -38 -233 13 -22 37 -8 55
32 20 46 17 70 -7 41 -13 -16 -14 -12 -9 45 3 35 14 100 25 145 10 45 33 143
50 217 46 198 73 300 80 300 3 0 15 -14 26 -30 11 -17 26 -28 33 -25 7 3 11 1
8 -4 -3 -5 12 -13 35 -19 103 -26 248 50 361 190 59 73 91 123 135 213 l46 95
70 0 70 0 -39 28 c-21 16 -45 36 -52 45 -13 15 -12 90 1 104 12 11 8 98 -8
149 -25 86 -101 140 -208 151 l-62 6 -164 269 c-90 148 -161 271 -158 274 3 4
52 14 109 24 382 66 592 251 657 577 25 120 27 269 7 375 -52 270 -246 481
-532 579 -161 55 -219 59 -856 59 l-579 0 20 -27z m1107 -68 c114 -20 171 -38
264 -86 176 -90 285 -226 337 -420 24 -92 24 -326 0 -434 -45 -194 -153 -339
-311 -415 -178 -86 -305 -103 -776 -104 l-345 -1 0 680 c0 374 4 706 8 738 l8
57 363 0 c280 0 384 -3 452 -15z m552 -2129 c37 -19 67 -56 82 -102 14 -41 8
-176 -7 -181 -6 -2 -20 8 -32 23 -32 40 -171 269 -171 281 0 14 89 -1 128 -21z
m-249 -153 c57 -95 90 -179 91 -225 l0 -38 95 0 c52 0 95 -2 95 -4 0 -12 -49
-110 -81 -165 -22 -34 -39 -65 -39 -68 0 -7 -32 -43 -100 -112 -81 -83 -138
-113 -231 -118 -73 -5 -76 -5 -106 25 -48 49 -49 80 -4 264 22 90 61 254 88
366 43 184 50 204 73 215 28 14 23 19 119 -140z m-886 36 c20 -23 45 -63 54
-90 10 -26 20 -46 23 -44 3 2 5 -7 6 -18 0 -12 6 -60 13 -107 32 -211 -24
-509 -140 -750 -65 -134 -88 -169 -173 -258 -90 -94 -146 -122 -240 -122 l-70
0 -52 53 c-39 41 -55 66 -64 105 -8 28 -16 49 -19 47 -14 -8 -12 295 3 394 15
95 54 269 72 315 6 15 4 17 -6 11 -9 -5 -11 -4 -6 4 4 6 12 9 17 6 5 -4 9 0 9
7 0 7 12 43 27 80 l28 68 58 0 c31 0 57 -2 57 -4 0 -2 -11 -46 -24 -99 -59
-233 -110 -717 -76 -717 16 0 18 14 24 140 9 189 60 534 97 648 l11 32 94 0
95 0 -19 28 c-26 36 -42 95 -42 155 0 48 0 48 22 33 12 -9 32 -16 43 -16 18 1
17 3 -8 25 -15 14 -35 25 -43 25 -26 0 -14 28 27 61 76 60 140 56 202 -12z"/>
</g>
</svg>
